<svg xmlns="http://www.w3.org/2000/svg" xmlns:xlink="http://www.w3.org/1999/xlink" viewBox="0 0 430 430" width="430" height="430" preserveAspectRatio="xMidYMid meet" style="width: 100%; height: 100%; transform: translate3d(0px, 0px, 0px); content-visibility: visible;"><defs><clipPath id="__lottie_element_59"><rect width="430" height="430" x="0" y="0"/></clipPath><clipPath id="__lottie_element_61"><path d="M0,0 L430,0 L430,430 L0,430z"/></clipPath><clipPath id="__lottie_element_66"><path d="M0,0 L430,0 L430,430 L0,430z"/></clipPath><g id="__lottie_element_72"><g clip-path="url(#__lottie_element_73)" transform="matrix(1,0,0,1,0,0)" opacity="1" style="display: block;"><g transform="matrix(1,0,0,1,215,215.5)" opacity="1" style="display: none;"><g opacity="1" transform="matrix(1,0,0,1,0,0)"><path class="primary" fill="rgb(242,76,0)" fill-opacity="1" d=" M191.58157348632812,136.22056579589844 C192.75357055664062,135.04856872558594 194.65257263183594,135.04856872558594 195.82456970214844,136.22056579589844 C195.82456970214844,136.22056579589844 198.24032592773438,138.63633728027344 198.24032592773438,138.63633728027344 C199.41233825683594,139.80833435058594 199.41233825683594,141.70733642578125 198.24032592773438,142.87933349609375 C198.24032592773438,142.87933349609375 142.37933349609375,198.74032592773438 142.37933349609375,198.74032592773438 C141.20733642578125,199.91233825683594 139.30833435058594,199.91233825683594 138.13633728027344,198.74032592773438 C138.13633728027344,198.74032592773438 135.72056579589844,196.32456970214844 135.72056579589844,196.32456970214844 C134.54856872558594,195.15257263183594 134.54856872558594,193.25357055664062 135.72056579589844,192.08157348632812 C135.72056579589844,192.08157348632812 191.58157348632812,136.22056579589844 191.58157348632812,136.22056579589844z"/></g></g><g transform="matrix(1,0,0,1,215,215.5)" opacity="1" style="display: none;"><g opacity="1" transform="matrix(1,0,0,1,0,0)"><path class="primary" fill="rgb(242,76,0)" fill-opacity="1" d=" M-195.82456970214844,136.22056579589844 C-194.65257263183594,135.04856872558594 -192.75357055664062,135.04856872558594 -191.58157348632812,136.22056579589844 C-191.58157348632812,136.22056579589844 -135.72056579589844,192.08157348632812 -135.72056579589844,192.08157348632812 C-134.54856872558594,193.25357055664062 -134.54856872558594,195.15257263183594 -135.72056579589844,196.32456970214844 C-135.72056579589844,196.32456970214844 -138.13633728027344,198.74032592773438 -138.13633728027344,198.74032592773438 C-139.30833435058594,199.91233825683594 -141.20733642578125,199.91233825683594 -142.37933349609375,198.74032592773438 C-142.37933349609375,198.74032592773438 -198.24032592773438,142.87933349609375 -198.24032592773438,142.87933349609375 C-199.41233825683594,141.70733642578125 -199.41233825683594,139.80833435058594 -198.24032592773438,138.63633728027344 C-198.24032592773438,138.63633728027344 -195.82456970214844,136.22056579589844 -195.82456970214844,136.22056579589844z"/></g></g><g transform="matrix(1,0,0,1,215,215.5)" opacity="1" style="display: block;"><g opacity="1" transform="matrix(1,0,0,1,0,0)"><path class="primary" fill="rgb(242,76,0)" fill-opacity="1" d=" M-117.76753234863281,-173.12852478027344 C-116.59552764892578,-174.300537109375 -114.696533203125,-174.300537109375 -113.52452850341797,-173.12852478027344 C-113.52452850341797,-173.12852478027344 52.16646957397461,-7.4375319480896 52.16646957397461,-7.4375319480896 C53.33846664428711,-6.26553201675415 53.33846664428711,-4.366531848907471 52.16646957397461,-3.1945319175720215 C52.16646957397461,-3.1945319175720215 -3.6945319175720215,52.66646957397461 -3.6945319175720215,52.66646957397461 C-4.866531848907471,53.83846664428711 -6.76553201675415,53.83846664428711 -7.9375319480896,52.66646957397461 C-7.9375319480896,52.66646957397461 -173.62852478027344,-113.02452850341797 -173.62852478027344,-113.02452850341797 C-174.800537109375,-114.196533203125 -174.800537109375,-116.09552764892578 -173.62852478027344,-117.26753234863281 C-173.62852478027344,-117.26753234863281 -117.76753234863281,-173.12852478027344 -117.76753234863281,-173.12852478027344z"/></g></g><g transform="matrix(1,0,0,1,215,215.5)" opacity="1" style="display: block;"><g opacity="1" transform="matrix(1,0,0,1,0,0)"><path class="primary" fill="rgb(242,76,0)" fill-opacity="1" d=" M113.52452850341797,-173.12852478027344 C114.696533203125,-174.300537109375 116.59552764892578,-174.300537109375 117.76753234863281,-173.12852478027344 C117.76753234863281,-173.12852478027344 173.62852478027344,-117.26753234863281 173.62852478027344,-117.26753234863281 C174.800537109375,-116.09552764892578 174.800537109375,-114.196533203125 173.62852478027344,-113.02452850341797 C173.62852478027344,-113.02452850341797 7.9375319480896,52.66646957397461 7.9375319480896,52.66646957397461 C6.76553201675415,53.83846664428711 4.866531848907471,53.83846664428711 3.6945319175720215,52.66646957397461 C3.6945319175720215,52.66646957397461 -52.16646957397461,-3.1945319175720215 -52.16646957397461,-3.1945319175720215 C-53.33846664428711,-4.366531848907471 -53.33846664428711,-6.26553201675415 -52.16646957397461,-7.4375319480896 C-52.16646957397461,-7.4375319480896 113.52452850341797,-173.12852478027344 113.52452850341797,-173.12852478027344z"/></g></g></g></g><clipPath id="__lottie_element_73"><path d="M0,0 L430,0 L430,430 L0,430z"/></clipPath><mask id="__lottie_element_72_1" mask-type="alpha"><use xmlns:ns1="http://www.w3.org/1999/xlink" ns1:href="#__lottie_element_72"/></mask></defs><g clip-path="url(#__lottie_element_59)"><g clip-path="url(#__lottie_element_61)" transform="matrix(1,0,0,1,0,0)" opacity="1" style="display: block;"><g clip-path="url(#__lottie_element_66)" transform="matrix(1,0,0,1,0,0)" opacity="1" style="display: block;"><g transform="matrix(1,0,0,1,215,215.5)" opacity="1" style="display: none;"><g opacity="1" transform="matrix(1,0,0,1,0,0)"><path class="primary" fill="rgb(242,76,0)" fill-opacity="1" d=" M191.58157348632812,136.22056579589844 C192.75357055664062,135.04856872558594 194.65257263183594,135.04856872558594 195.82456970214844,136.22056579589844 C195.82456970214844,136.22056579589844 198.24032592773438,138.63633728027344 198.24032592773438,138.63633728027344 C199.41233825683594,139.80833435058594 199.41233825683594,141.70733642578125 198.24032592773438,142.87933349609375 C198.24032592773438,142.87933349609375 142.37933349609375,198.74032592773438 142.37933349609375,198.74032592773438 C141.20733642578125,199.91233825683594 139.30833435058594,199.91233825683594 138.13633728027344,198.74032592773438 C138.13633728027344,198.74032592773438 135.72056579589844,196.32456970214844 135.72056579589844,196.32456970214844 C134.54856872558594,195.15257263183594 134.54856872558594,193.25357055664062 135.72056579589844,192.08157348632812 C135.72056579589844,192.08157348632812 191.58157348632812,136.22056579589844 191.58157348632812,136.22056579589844z"/></g></g><g transform="matrix(1,0,0,1,215,215.5)" opacity="1" style="display: none;"><g opacity="1" transform="matrix(1,0,0,1,0,0)"><path class="primary" fill="rgb(242,76,0)" fill-opacity="1" d=" M-195.82456970214844,136.22056579589844 C-194.65257263183594,135.04856872558594 -192.75357055664062,135.04856872558594 -191.58157348632812,136.22056579589844 C-191.58157348632812,136.22056579589844 -135.72056579589844,192.08157348632812 -135.72056579589844,192.08157348632812 C-134.54856872558594,193.25357055664062 -134.54856872558594,195.15257263183594 -135.72056579589844,196.32456970214844 C-135.72056579589844,196.32456970214844 -138.13633728027344,198.74032592773438 -138.13633728027344,198.74032592773438 C-139.30833435058594,199.91233825683594 -141.20733642578125,199.91233825683594 -142.37933349609375,198.74032592773438 C-142.37933349609375,198.74032592773438 -198.24032592773438,142.87933349609375 -198.24032592773438,142.87933349609375 C-199.41233825683594,141.70733642578125 -199.41233825683594,139.80833435058594 -198.24032592773438,138.63633728027344 C-198.24032592773438,138.63633728027344 -195.82456970214844,136.22056579589844 -195.82456970214844,136.22056579589844z"/></g></g><g transform="matrix(1,0,0,1,215,215.5)" opacity="1" style="display: block;"><g opacity="1" transform="matrix(1,0,0,1,0,0)"><path class="primary" fill="rgb(242,76,0)" fill-opacity="1" d=" M-117.76753234863281,-173.12852478027344 C-116.59552764892578,-174.300537109375 -114.696533203125,-174.300537109375 -113.52452850341797,-173.12852478027344 C-113.52452850341797,-173.12852478027344 52.16646957397461,-7.4375319480896 52.16646957397461,-7.4375319480896 C53.33846664428711,-6.26553201675415 53.33846664428711,-4.366531848907471 52.16646957397461,-3.1945319175720215 C52.16646957397461,-3.1945319175720215 -3.6945319175720215,52.66646957397461 -3.6945319175720215,52.66646957397461 C-4.866531848907471,53.83846664428711 -6.76553201675415,53.83846664428711 -7.9375319480896,52.66646957397461 C-7.9375319480896,52.66646957397461 -173.62852478027344,-113.02452850341797 -173.62852478027344,-113.02452850341797 C-174.800537109375,-114.196533203125 -174.800537109375,-116.09552764892578 -173.62852478027344,-117.26753234863281 C-173.62852478027344,-117.26753234863281 -117.76753234863281,-173.12852478027344 -117.76753234863281,-173.12852478027344z"/></g></g><g transform="matrix(1,0,0,1,215,215.5)" opacity="1" style="display: block;"><g opacity="1" transform="matrix(1,0,0,1,0,0)"><path class="primary" fill="rgb(242,76,0)" fill-opacity="1" d=" M113.52452850341797,-173.12852478027344 C114.696533203125,-174.300537109375 116.59552764892578,-174.300537109375 117.76753234863281,-173.12852478027344 C117.76753234863281,-173.12852478027344 173.62852478027344,-117.26753234863281 173.62852478027344,-117.26753234863281 C174.800537109375,-116.09552764892578 174.800537109375,-114.196533203125 173.62852478027344,-113.02452850341797 C173.62852478027344,-113.02452850341797 7.9375319480896,52.66646957397461 7.9375319480896,52.66646957397461 C6.76553201675415,53.83846664428711 4.866531848907471,53.83846664428711 3.6945319175720215,52.66646957397461 C3.6945319175720215,52.66646957397461 -52.16646957397461,-3.1945319175720215 -52.16646957397461,-3.1945319175720215 C-53.33846664428711,-4.366531848907471 -53.33846664428711,-6.26553201675415 -52.16646957397461,-7.4375319480896 C-52.16646957397461,-7.4375319480896 113.52452850341797,-173.12852478027344 113.52452850341797,-173.12852478027344z"/></g></g></g><g mask="url(#__lottie_element_72_1)" style="mix-blend-mode: multiply; display: block;"><g transform="matrix(1,0,0,1,222,215)" opacity="0.5"><g opacity="1" transform="matrix(1,0,0,1,-98,-9)"><path class="primary" fill="rgb(242,76,0)" fill-opacity="1" d=" M90,-222 C90,-222 90,254 90,254 C90,254 -134,254 -134,254 C-134,254 -134,-222 -134,-222 C-134,-222 90,-222 90,-222z"/></g></g></g></g></g></svg>